<mxfile host="Electron" modified="2023-10-02T12:52:38.918Z" agent="Mozilla/5.0 (X11; Linux x86_64) AppleWebKit/537.36 (KHTML, like Gecko) draw.io/21.7.5 Chrome/114.0.5735.289 Electron/25.8.1 Safari/537.36" etag="Z8sksyRtEQbNwUVFX4uU" version="21.7.5" type="device">
  <diagram id="C5RBs43oDa-KdzZeNtuy" name="Page-1">
    <mxGraphModel dx="1912" dy="1124" grid="1" gridSize="10" guides="1" tooltips="1" connect="1" arrows="1" fold="1" page="1" pageScale="1" pageWidth="827" pageHeight="1169" math="0" shadow="0">
      <root>
        <mxCell id="WIyWlLk6GJQsqaUBKTNV-0" />
        <mxCell id="WIyWlLk6GJQsqaUBKTNV-1" parent="WIyWlLk6GJQsqaUBKTNV-0" />
        <mxCell id="lZmkyHPM3k69H4kmXl3D-4" style="edgeStyle=orthogonalEdgeStyle;rounded=0;orthogonalLoop=1;jettySize=auto;html=1;entryX=0.5;entryY=0;entryDx=0;entryDy=0;" edge="1" parent="WIyWlLk6GJQsqaUBKTNV-1" source="lZmkyHPM3k69H4kmXl3D-0" target="lZmkyHPM3k69H4kmXl3D-2">
          <mxGeometry relative="1" as="geometry" />
        </mxCell>
        <mxCell id="lZmkyHPM3k69H4kmXl3D-0" value="Statr" style="ellipse;whiteSpace=wrap;html=1;" vertex="1" parent="WIyWlLk6GJQsqaUBKTNV-1">
          <mxGeometry x="345" y="83" width="100" height="50" as="geometry" />
        </mxCell>
        <mxCell id="lZmkyHPM3k69H4kmXl3D-1" value="Stop" style="ellipse;whiteSpace=wrap;html=1;" vertex="1" parent="WIyWlLk6GJQsqaUBKTNV-1">
          <mxGeometry x="335" y="1093" width="100" height="50" as="geometry" />
        </mxCell>
        <mxCell id="lZmkyHPM3k69H4kmXl3D-5" style="edgeStyle=orthogonalEdgeStyle;rounded=0;orthogonalLoop=1;jettySize=auto;html=1;entryX=0.5;entryY=0;entryDx=0;entryDy=0;" edge="1" parent="WIyWlLk6GJQsqaUBKTNV-1" source="lZmkyHPM3k69H4kmXl3D-2" target="lZmkyHPM3k69H4kmXl3D-3">
          <mxGeometry relative="1" as="geometry" />
        </mxCell>
        <mxCell id="lZmkyHPM3k69H4kmXl3D-2" value="Инициализировать переменные:&lt;br/&gt;left = 0&lt;br/&gt;right = arr.length - 1" style="rounded=1;whiteSpace=wrap;html=1;fontSize=12;glass=0;strokeWidth=1;shadow=0;" vertex="1" parent="WIyWlLk6GJQsqaUBKTNV-1">
          <mxGeometry x="335" y="173" width="120" height="60" as="geometry" />
        </mxCell>
        <mxCell id="lZmkyHPM3k69H4kmXl3D-9" style="edgeStyle=orthogonalEdgeStyle;rounded=0;orthogonalLoop=1;jettySize=auto;html=1;exitX=1;exitY=0.5;exitDx=0;exitDy=0;entryX=1;entryY=0.5;entryDx=0;entryDy=0;" edge="1" parent="WIyWlLk6GJQsqaUBKTNV-1" source="lZmkyHPM3k69H4kmXl3D-3" target="lZmkyHPM3k69H4kmXl3D-1">
          <mxGeometry relative="1" as="geometry">
            <mxPoint x="648" y="893" as="targetPoint" />
            <Array as="points">
              <mxPoint x="635" y="330" />
              <mxPoint x="635" y="1118" />
            </Array>
          </mxGeometry>
        </mxCell>
        <mxCell id="lZmkyHPM3k69H4kmXl3D-11" value="FALSE" style="edgeLabel;html=1;align=center;verticalAlign=middle;resizable=0;points=[];" vertex="1" connectable="0" parent="lZmkyHPM3k69H4kmXl3D-9">
          <mxGeometry x="-0.8241" relative="1" as="geometry">
            <mxPoint as="offset" />
          </mxGeometry>
        </mxCell>
        <mxCell id="lZmkyHPM3k69H4kmXl3D-12" style="edgeStyle=orthogonalEdgeStyle;rounded=0;orthogonalLoop=1;jettySize=auto;html=1;entryX=0.472;entryY=-0.003;entryDx=0;entryDy=0;entryPerimeter=0;" edge="1" parent="WIyWlLk6GJQsqaUBKTNV-1" source="lZmkyHPM3k69H4kmXl3D-3" target="lZmkyHPM3k69H4kmXl3D-8">
          <mxGeometry relative="1" as="geometry" />
        </mxCell>
        <mxCell id="lZmkyHPM3k69H4kmXl3D-13" value="TRUE" style="edgeLabel;html=1;align=center;verticalAlign=middle;resizable=0;points=[];" vertex="1" connectable="0" parent="lZmkyHPM3k69H4kmXl3D-12">
          <mxGeometry x="-0.1106" y="-1" relative="1" as="geometry">
            <mxPoint as="offset" />
          </mxGeometry>
        </mxCell>
        <mxCell id="lZmkyHPM3k69H4kmXl3D-3" value="While (left &amp;lt; right)" style="rhombus;whiteSpace=wrap;html=1;" vertex="1" parent="WIyWlLk6GJQsqaUBKTNV-1">
          <mxGeometry x="335" y="273" width="120" height="114" as="geometry" />
        </mxCell>
        <mxCell id="lZmkyHPM3k69H4kmXl3D-14" style="edgeStyle=orthogonalEdgeStyle;rounded=0;orthogonalLoop=1;jettySize=auto;html=1;entryX=0;entryY=0.5;entryDx=0;entryDy=0;" edge="1" parent="WIyWlLk6GJQsqaUBKTNV-1" source="lZmkyHPM3k69H4kmXl3D-8" target="lZmkyHPM3k69H4kmXl3D-3">
          <mxGeometry relative="1" as="geometry">
            <mxPoint x="245" y="343" as="targetPoint" />
            <Array as="points">
              <mxPoint x="175" y="1003" />
              <mxPoint x="175" y="330" />
            </Array>
          </mxGeometry>
        </mxCell>
        <mxCell id="lZmkyHPM3k69H4kmXl3D-8" value="" style="rounded=1;whiteSpace=wrap;html=1;" vertex="1" parent="WIyWlLk6GJQsqaUBKTNV-1">
          <mxGeometry x="235" y="443" width="340" height="600" as="geometry" />
        </mxCell>
        <mxCell id="lZmkyHPM3k69H4kmXl3D-20" style="edgeStyle=orthogonalEdgeStyle;rounded=0;orthogonalLoop=1;jettySize=auto;html=1;entryX=0;entryY=0.5;entryDx=0;entryDy=0;" edge="1" parent="WIyWlLk6GJQsqaUBKTNV-1" source="lZmkyHPM3k69H4kmXl3D-15" target="lZmkyHPM3k69H4kmXl3D-19">
          <mxGeometry relative="1" as="geometry" />
        </mxCell>
        <mxCell id="lZmkyHPM3k69H4kmXl3D-21" value="True" style="edgeLabel;html=1;align=center;verticalAlign=middle;resizable=0;points=[];" vertex="1" connectable="0" parent="lZmkyHPM3k69H4kmXl3D-20">
          <mxGeometry x="0.1594" y="-1" relative="1" as="geometry">
            <mxPoint as="offset" />
          </mxGeometry>
        </mxCell>
        <mxCell id="lZmkyHPM3k69H4kmXl3D-23" style="edgeStyle=orthogonalEdgeStyle;rounded=0;orthogonalLoop=1;jettySize=auto;html=1;entryX=0;entryY=0.5;entryDx=0;entryDy=0;exitX=0.176;exitY=0.2;exitDx=0;exitDy=0;exitPerimeter=0;" edge="1" parent="WIyWlLk6GJQsqaUBKTNV-1" target="lZmkyHPM3k69H4kmXl3D-16">
          <mxGeometry relative="1" as="geometry">
            <mxPoint x="294.8399999999999" y="577" as="sourcePoint" />
            <Array as="points">
              <mxPoint x="255" y="577" />
              <mxPoint x="255" y="692" />
            </Array>
          </mxGeometry>
        </mxCell>
        <mxCell id="lZmkyHPM3k69H4kmXl3D-24" value="False" style="edgeLabel;html=1;align=center;verticalAlign=middle;resizable=0;points=[];" vertex="1" connectable="0" parent="lZmkyHPM3k69H4kmXl3D-23">
          <mxGeometry x="-0.0387" y="2" relative="1" as="geometry">
            <mxPoint as="offset" />
          </mxGeometry>
        </mxCell>
        <mxCell id="lZmkyHPM3k69H4kmXl3D-15" value="i &amp;lt;right" style="rhombus;whiteSpace=wrap;html=1;" vertex="1" parent="WIyWlLk6GJQsqaUBKTNV-1">
          <mxGeometry x="295" y="537" width="80" height="80" as="geometry" />
        </mxCell>
        <mxCell id="lZmkyHPM3k69H4kmXl3D-50" style="edgeStyle=orthogonalEdgeStyle;rounded=0;orthogonalLoop=1;jettySize=auto;html=1;entryX=0.206;entryY=0.323;entryDx=0;entryDy=0;entryPerimeter=0;exitX=1;exitY=0.5;exitDx=0;exitDy=0;" edge="1" parent="WIyWlLk6GJQsqaUBKTNV-1" source="lZmkyHPM3k69H4kmXl3D-16" target="lZmkyHPM3k69H4kmXl3D-35">
          <mxGeometry relative="1" as="geometry">
            <Array as="points">
              <mxPoint x="385" y="692" />
              <mxPoint x="385" y="723" />
              <mxPoint x="312" y="723" />
            </Array>
          </mxGeometry>
        </mxCell>
        <mxCell id="lZmkyHPM3k69H4kmXl3D-54" value="&lt;font color=&quot;#00cc00&quot;&gt;Вход&lt;/font&gt;" style="edgeLabel;html=1;align=center;verticalAlign=middle;resizable=0;points=[];" vertex="1" connectable="0" parent="lZmkyHPM3k69H4kmXl3D-50">
          <mxGeometry x="-0.1284" y="2" relative="1" as="geometry">
            <mxPoint as="offset" />
          </mxGeometry>
        </mxCell>
        <mxCell id="lZmkyHPM3k69H4kmXl3D-16" value="&lt;div&gt;right --&lt;/div&gt;" style="rounded=1;whiteSpace=wrap;html=1;fontSize=12;glass=0;strokeWidth=1;shadow=0;" vertex="1" parent="WIyWlLk6GJQsqaUBKTNV-1">
          <mxGeometry x="295" y="677" width="70" height="30" as="geometry" />
        </mxCell>
        <mxCell id="lZmkyHPM3k69H4kmXl3D-25" style="edgeStyle=orthogonalEdgeStyle;rounded=0;orthogonalLoop=1;jettySize=auto;html=1;entryX=0.5;entryY=0;entryDx=0;entryDy=0;" edge="1" parent="WIyWlLk6GJQsqaUBKTNV-1" source="lZmkyHPM3k69H4kmXl3D-19" target="lZmkyHPM3k69H4kmXl3D-22">
          <mxGeometry relative="1" as="geometry" />
        </mxCell>
        <mxCell id="lZmkyHPM3k69H4kmXl3D-26" value="True" style="edgeLabel;html=1;align=center;verticalAlign=middle;resizable=0;points=[];" vertex="1" connectable="0" parent="lZmkyHPM3k69H4kmXl3D-25">
          <mxGeometry x="-0.6667" y="-1" relative="1" as="geometry">
            <mxPoint as="offset" />
          </mxGeometry>
        </mxCell>
        <mxCell id="lZmkyHPM3k69H4kmXl3D-28" style="edgeStyle=orthogonalEdgeStyle;rounded=0;orthogonalLoop=1;jettySize=auto;html=1;entryX=0.5;entryY=0;entryDx=0;entryDy=0;" edge="1" parent="WIyWlLk6GJQsqaUBKTNV-1" source="lZmkyHPM3k69H4kmXl3D-19" target="lZmkyHPM3k69H4kmXl3D-15">
          <mxGeometry relative="1" as="geometry">
            <Array as="points">
              <mxPoint x="525" y="517" />
              <mxPoint x="335" y="517" />
            </Array>
          </mxGeometry>
        </mxCell>
        <mxCell id="lZmkyHPM3k69H4kmXl3D-29" value="False" style="edgeLabel;html=1;align=center;verticalAlign=middle;resizable=0;points=[];" vertex="1" connectable="0" parent="lZmkyHPM3k69H4kmXl3D-28">
          <mxGeometry x="0.1011" y="1" relative="1" as="geometry">
            <mxPoint as="offset" />
          </mxGeometry>
        </mxCell>
        <mxCell id="lZmkyHPM3k69H4kmXl3D-19" value="arr[i] &amp;gt; arr[i + 1]" style="rhombus;whiteSpace=wrap;html=1;" vertex="1" parent="WIyWlLk6GJQsqaUBKTNV-1">
          <mxGeometry x="425" y="537" width="100" height="80" as="geometry" />
        </mxCell>
        <mxCell id="lZmkyHPM3k69H4kmXl3D-30" style="edgeStyle=orthogonalEdgeStyle;rounded=0;orthogonalLoop=1;jettySize=auto;html=1;entryX=0.5;entryY=1;entryDx=0;entryDy=0;" edge="1" parent="WIyWlLk6GJQsqaUBKTNV-1" source="lZmkyHPM3k69H4kmXl3D-22" target="lZmkyHPM3k69H4kmXl3D-61">
          <mxGeometry relative="1" as="geometry">
            <mxPoint x="525" y="577" as="targetPoint" />
            <Array as="points">
              <mxPoint x="475" y="720" />
              <mxPoint x="410" y="720" />
              <mxPoint x="410" y="677" />
              <mxPoint x="380" y="677" />
            </Array>
          </mxGeometry>
        </mxCell>
        <mxCell id="lZmkyHPM3k69H4kmXl3D-84" value="&lt;font color=&quot;#ff0000&quot;&gt;Выход&lt;/font&gt;" style="edgeLabel;html=1;align=center;verticalAlign=middle;resizable=0;points=[];" vertex="1" connectable="0" parent="lZmkyHPM3k69H4kmXl3D-30">
          <mxGeometry x="-0.4338" y="-1" relative="1" as="geometry">
            <mxPoint as="offset" />
          </mxGeometry>
        </mxCell>
        <mxCell id="lZmkyHPM3k69H4kmXl3D-22" value="&lt;div&gt;int temp = arr[i];&lt;/div&gt;&lt;div&gt;arr[i] = arr[i + 1];&lt;/div&gt;&lt;div&gt;&amp;nbsp;arr[i + 1] = temp;&lt;/div&gt;" style="rounded=1;whiteSpace=wrap;html=1;fontSize=12;glass=0;strokeWidth=1;shadow=0;" vertex="1" parent="WIyWlLk6GJQsqaUBKTNV-1">
          <mxGeometry x="420" y="647" width="110" height="60" as="geometry" />
        </mxCell>
        <mxCell id="lZmkyHPM3k69H4kmXl3D-31" style="edgeStyle=orthogonalEdgeStyle;rounded=0;orthogonalLoop=1;jettySize=auto;html=1;entryX=0;entryY=0.5;entryDx=0;entryDy=0;" edge="1" parent="WIyWlLk6GJQsqaUBKTNV-1" source="lZmkyHPM3k69H4kmXl3D-35" target="lZmkyHPM3k69H4kmXl3D-41">
          <mxGeometry relative="1" as="geometry" />
        </mxCell>
        <mxCell id="lZmkyHPM3k69H4kmXl3D-32" value="True" style="edgeLabel;html=1;align=center;verticalAlign=middle;resizable=0;points=[];" vertex="1" connectable="0" parent="lZmkyHPM3k69H4kmXl3D-31">
          <mxGeometry x="0.1594" y="-1" relative="1" as="geometry">
            <mxPoint as="offset" />
          </mxGeometry>
        </mxCell>
        <mxCell id="lZmkyHPM3k69H4kmXl3D-33" style="edgeStyle=orthogonalEdgeStyle;rounded=0;orthogonalLoop=1;jettySize=auto;html=1;entryX=0;entryY=0.5;entryDx=0;entryDy=0;exitX=0.176;exitY=0.2;exitDx=0;exitDy=0;exitPerimeter=0;" edge="1" parent="WIyWlLk6GJQsqaUBKTNV-1" target="lZmkyHPM3k69H4kmXl3D-36">
          <mxGeometry relative="1" as="geometry">
            <mxPoint x="294.8399999999999" y="851" as="sourcePoint" />
            <Array as="points">
              <mxPoint x="255" y="851" />
              <mxPoint x="255" y="966" />
            </Array>
          </mxGeometry>
        </mxCell>
        <mxCell id="lZmkyHPM3k69H4kmXl3D-34" value="False" style="edgeLabel;html=1;align=center;verticalAlign=middle;resizable=0;points=[];" vertex="1" connectable="0" parent="lZmkyHPM3k69H4kmXl3D-33">
          <mxGeometry x="-0.0387" y="2" relative="1" as="geometry">
            <mxPoint as="offset" />
          </mxGeometry>
        </mxCell>
        <mxCell id="lZmkyHPM3k69H4kmXl3D-35" value="i &amp;gt; left" style="rhombus;whiteSpace=wrap;html=1;" vertex="1" parent="WIyWlLk6GJQsqaUBKTNV-1">
          <mxGeometry x="295" y="811" width="80" height="80" as="geometry" />
        </mxCell>
        <mxCell id="lZmkyHPM3k69H4kmXl3D-49" style="edgeStyle=orthogonalEdgeStyle;rounded=0;orthogonalLoop=1;jettySize=auto;html=1;entryX=0;entryY=0.932;entryDx=0;entryDy=0;entryPerimeter=0;exitX=1;exitY=0.5;exitDx=0;exitDy=0;" edge="1" parent="WIyWlLk6GJQsqaUBKTNV-1" source="lZmkyHPM3k69H4kmXl3D-36" target="lZmkyHPM3k69H4kmXl3D-8">
          <mxGeometry relative="1" as="geometry" />
        </mxCell>
        <mxCell id="lZmkyHPM3k69H4kmXl3D-55" value="&lt;font color=&quot;#ff0000&quot;&gt;Выход&lt;/font&gt;" style="edgeLabel;html=1;align=center;verticalAlign=middle;resizable=0;points=[];" vertex="1" connectable="0" parent="lZmkyHPM3k69H4kmXl3D-49">
          <mxGeometry x="0.3651" relative="1" as="geometry">
            <mxPoint as="offset" />
          </mxGeometry>
        </mxCell>
        <mxCell id="lZmkyHPM3k69H4kmXl3D-36" value="&lt;div&gt;left++&lt;/div&gt;" style="rounded=1;whiteSpace=wrap;html=1;fontSize=12;glass=0;strokeWidth=1;shadow=0;" vertex="1" parent="WIyWlLk6GJQsqaUBKTNV-1">
          <mxGeometry x="295" y="951" width="70" height="30" as="geometry" />
        </mxCell>
        <mxCell id="lZmkyHPM3k69H4kmXl3D-37" style="edgeStyle=orthogonalEdgeStyle;rounded=0;orthogonalLoop=1;jettySize=auto;html=1;entryX=0.5;entryY=0;entryDx=0;entryDy=0;" edge="1" parent="WIyWlLk6GJQsqaUBKTNV-1" source="lZmkyHPM3k69H4kmXl3D-41" target="lZmkyHPM3k69H4kmXl3D-43">
          <mxGeometry relative="1" as="geometry" />
        </mxCell>
        <mxCell id="lZmkyHPM3k69H4kmXl3D-38" value="True" style="edgeLabel;html=1;align=center;verticalAlign=middle;resizable=0;points=[];" vertex="1" connectable="0" parent="lZmkyHPM3k69H4kmXl3D-37">
          <mxGeometry x="-0.6667" y="-1" relative="1" as="geometry">
            <mxPoint as="offset" />
          </mxGeometry>
        </mxCell>
        <mxCell id="lZmkyHPM3k69H4kmXl3D-39" style="edgeStyle=orthogonalEdgeStyle;rounded=0;orthogonalLoop=1;jettySize=auto;html=1;entryX=0.5;entryY=0;entryDx=0;entryDy=0;" edge="1" parent="WIyWlLk6GJQsqaUBKTNV-1" source="lZmkyHPM3k69H4kmXl3D-41" target="lZmkyHPM3k69H4kmXl3D-35">
          <mxGeometry relative="1" as="geometry">
            <Array as="points">
              <mxPoint x="525" y="791" />
              <mxPoint x="335" y="791" />
            </Array>
          </mxGeometry>
        </mxCell>
        <mxCell id="lZmkyHPM3k69H4kmXl3D-40" value="False" style="edgeLabel;html=1;align=center;verticalAlign=middle;resizable=0;points=[];" vertex="1" connectable="0" parent="lZmkyHPM3k69H4kmXl3D-39">
          <mxGeometry x="0.1011" y="1" relative="1" as="geometry">
            <mxPoint as="offset" />
          </mxGeometry>
        </mxCell>
        <mxCell id="lZmkyHPM3k69H4kmXl3D-41" value="arr[i] &amp;lt; arr[i - 1]" style="rhombus;whiteSpace=wrap;html=1;" vertex="1" parent="WIyWlLk6GJQsqaUBKTNV-1">
          <mxGeometry x="425" y="811" width="100" height="80" as="geometry" />
        </mxCell>
        <mxCell id="lZmkyHPM3k69H4kmXl3D-43" value="&lt;div&gt;int temp = arr[i];&lt;/div&gt;&lt;div&gt;&lt;span style=&quot;background-color: initial;&quot;&gt;arr[i] = arr[i - 1];&lt;/span&gt;&lt;/div&gt;&lt;div&gt;&amp;nbsp;arr[i - 1] = temp;&lt;/div&gt;" style="rounded=1;whiteSpace=wrap;html=1;fontSize=12;glass=0;strokeWidth=1;shadow=0;" vertex="1" parent="WIyWlLk6GJQsqaUBKTNV-1">
          <mxGeometry x="420" y="921" width="110" height="60" as="geometry" />
        </mxCell>
        <mxCell id="lZmkyHPM3k69H4kmXl3D-44" value="&lt;font color=&quot;#4d4d4d&quot;&gt;Сортируем массив слева направо, перемещая наибольший элемент вправо&lt;/font&gt;" style="text;html=1;strokeColor=none;fillColor=none;align=center;verticalAlign=middle;whiteSpace=wrap;rounded=0;" vertex="1" parent="WIyWlLk6GJQsqaUBKTNV-1">
          <mxGeometry x="325" y="470" width="240" height="30" as="geometry" />
        </mxCell>
        <mxCell id="lZmkyHPM3k69H4kmXl3D-46" value="&lt;font color=&quot;#4d4d4d&quot;&gt;Сортируем массив справа налево, перемещая наименьший элемент влево.&lt;/font&gt;" style="text;html=1;strokeColor=none;fillColor=none;align=center;verticalAlign=middle;whiteSpace=wrap;rounded=0;" vertex="1" parent="WIyWlLk6GJQsqaUBKTNV-1">
          <mxGeometry x="315" y="743" width="260" height="30" as="geometry" />
        </mxCell>
        <mxCell id="lZmkyHPM3k69H4kmXl3D-52" value="" style="endArrow=classic;html=1;rounded=0;exitX=0.47;exitY=-0.001;exitDx=0;exitDy=0;exitPerimeter=0;entryX=0;entryY=0;entryDx=0;entryDy=0;" edge="1" parent="WIyWlLk6GJQsqaUBKTNV-1" source="lZmkyHPM3k69H4kmXl3D-8" target="lZmkyHPM3k69H4kmXl3D-15">
          <mxGeometry width="50" height="50" relative="1" as="geometry">
            <mxPoint x="325" y="633" as="sourcePoint" />
            <mxPoint x="375" y="583" as="targetPoint" />
            <Array as="points">
              <mxPoint x="395" y="463" />
              <mxPoint x="315" y="463" />
            </Array>
          </mxGeometry>
        </mxCell>
        <mxCell id="lZmkyHPM3k69H4kmXl3D-53" value="&lt;font color=&quot;#00cc00&quot;&gt;Вход&lt;/font&gt;" style="edgeLabel;html=1;align=center;verticalAlign=middle;resizable=0;points=[];" vertex="1" connectable="0" parent="lZmkyHPM3k69H4kmXl3D-52">
          <mxGeometry x="-0.3839" relative="1" as="geometry">
            <mxPoint as="offset" />
          </mxGeometry>
        </mxCell>
        <mxCell id="lZmkyHPM3k69H4kmXl3D-59" value="&lt;b&gt;&lt;font style=&quot;font-size: 14px;&quot;&gt;Блок схема алгоритма работы шейкерной сортировки.&lt;/font&gt;&lt;/b&gt;" style="text;html=1;strokeColor=none;fillColor=none;align=center;verticalAlign=middle;whiteSpace=wrap;rounded=0;" vertex="1" parent="WIyWlLk6GJQsqaUBKTNV-1">
          <mxGeometry x="202.5" y="24" width="385" height="30" as="geometry" />
        </mxCell>
        <mxCell id="lZmkyHPM3k69H4kmXl3D-62" style="edgeStyle=orthogonalEdgeStyle;rounded=0;orthogonalLoop=1;jettySize=auto;html=1;entryX=0.476;entryY=0.955;entryDx=0;entryDy=0;entryPerimeter=0;" edge="1" parent="WIyWlLk6GJQsqaUBKTNV-1" source="lZmkyHPM3k69H4kmXl3D-61" target="lZmkyHPM3k69H4kmXl3D-15">
          <mxGeometry relative="1" as="geometry">
            <Array as="points">
              <mxPoint x="333" y="637" />
            </Array>
          </mxGeometry>
        </mxCell>
        <mxCell id="lZmkyHPM3k69H4kmXl3D-61" value="i++" style="rounded=1;whiteSpace=wrap;html=1;fontSize=12;glass=0;strokeWidth=1;shadow=0;" vertex="1" parent="WIyWlLk6GJQsqaUBKTNV-1">
          <mxGeometry x="360" y="627" width="40" height="20" as="geometry" />
        </mxCell>
        <mxCell id="lZmkyHPM3k69H4kmXl3D-73" style="edgeStyle=orthogonalEdgeStyle;rounded=0;orthogonalLoop=1;jettySize=auto;html=1;entryX=0.476;entryY=0.955;entryDx=0;entryDy=0;entryPerimeter=0;" edge="1" parent="WIyWlLk6GJQsqaUBKTNV-1" source="lZmkyHPM3k69H4kmXl3D-74">
          <mxGeometry relative="1" as="geometry">
            <mxPoint x="333" y="886.52" as="targetPoint" />
            <Array as="points">
              <mxPoint x="333" y="910.52" />
            </Array>
          </mxGeometry>
        </mxCell>
        <mxCell id="lZmkyHPM3k69H4kmXl3D-74" value="i++" style="rounded=1;whiteSpace=wrap;html=1;fontSize=12;glass=0;strokeWidth=1;shadow=0;" vertex="1" parent="WIyWlLk6GJQsqaUBKTNV-1">
          <mxGeometry x="360" y="900.52" width="40" height="20" as="geometry" />
        </mxCell>
        <mxCell id="lZmkyHPM3k69H4kmXl3D-75" value="i++" style="rounded=1;whiteSpace=wrap;html=1;fontSize=12;glass=0;strokeWidth=1;shadow=0;" vertex="1" parent="WIyWlLk6GJQsqaUBKTNV-1">
          <mxGeometry x="374" y="780" width="40" height="20" as="geometry" />
        </mxCell>
        <mxCell id="lZmkyHPM3k69H4kmXl3D-78" value="i++" style="rounded=1;whiteSpace=wrap;html=1;fontSize=12;glass=0;strokeWidth=1;shadow=0;" vertex="1" parent="WIyWlLk6GJQsqaUBKTNV-1">
          <mxGeometry x="374" y="503" width="40" height="20" as="geometry" />
        </mxCell>
        <mxCell id="lZmkyHPM3k69H4kmXl3D-85" style="edgeStyle=orthogonalEdgeStyle;rounded=0;orthogonalLoop=1;jettySize=auto;html=1;entryX=0.5;entryY=1;entryDx=0;entryDy=0;" edge="1" parent="WIyWlLk6GJQsqaUBKTNV-1">
          <mxGeometry relative="1" as="geometry">
            <mxPoint x="475" y="981" as="sourcePoint" />
            <mxPoint x="380" y="921" as="targetPoint" />
            <Array as="points">
              <mxPoint x="475" y="994" />
              <mxPoint x="410" y="994" />
              <mxPoint x="410" y="951" />
              <mxPoint x="380" y="951" />
            </Array>
          </mxGeometry>
        </mxCell>
        <mxCell id="lZmkyHPM3k69H4kmXl3D-86" value="&lt;font color=&quot;#ff0000&quot;&gt;Выход&lt;/font&gt;" style="edgeLabel;html=1;align=center;verticalAlign=middle;resizable=0;points=[];" vertex="1" connectable="0" parent="lZmkyHPM3k69H4kmXl3D-85">
          <mxGeometry x="-0.4338" y="-1" relative="1" as="geometry">
            <mxPoint as="offset" />
          </mxGeometry>
        </mxCell>
      </root>
    </mxGraphModel>
  </diagram>
</mxfile>
